<?xml version="1.0" encoding="UTF-8"?> <svg xmlns="http://www.w3.org/2000/svg" width="1394" height="580" viewBox="0 0 1394 580" fill="none"> <path fill-rule="evenodd" clip-rule="evenodd" d="M1046.97 2.32908C1111.68 -1.67133 1161.59 31.1542 1200.12 82.866C1238.66 134.602 1265.73 205.151 1284.68 276.297C1303.62 347.427 1314.43 419.072 1320.5 472.943C1323.54 499.876 1325.39 522.362 1326.48 538.112C1327.03 545.988 1327.38 552.179 1327.6 556.4C1327.71 558.511 1327.79 560.129 1327.84 561.219C1327.86 561.764 1327.88 562.177 1327.89 562.453L1327.9 562.765L1327.9 562.842L1327.91 562.862C1327.91 562.866 1327.91 562.868 1328.91 562.831C1329.53 562.808 1329.76 562.798 1329.85 562.793C1329.9 562.79 1329.9 562.789 1329.9 562.787L1329.9 562.767L1329.9 562.687C1329.9 562.617 1329.89 562.511 1329.89 562.372C1329.88 562.093 1329.86 561.678 1329.83 561.13C1329.79 560.035 1329.71 558.412 1329.6 556.296C1329.38 552.064 1329.02 545.861 1328.48 537.974C1327.38 522.199 1325.53 499.685 1322.49 472.719C1316.41 418.791 1305.59 347.041 1286.61 275.782C1267.63 204.539 1240.49 133.706 1201.72 81.6711C1162.94 29.612 1112.44 -3.7222 1046.84 0.332887C983.837 4.22758 942.992 41.3672 914.247 94.4395C897.734 124.928 885.188 160.72 874.7 198.572L876.898 198.132C887.303 160.74 899.722 125.457 916.006 95.392C944.545 42.6976 984.874 6.16731 1046.97 2.32908ZM808.24 467.822L806.391 467.061C806.115 467.726 805.837 468.387 805.558 469.046C795.121 493.678 782.708 513.771 767.109 527.317C751.543 540.836 732.765 547.869 709.471 546.333C665.998 543.467 610.321 517.283 549.163 481.356C508.863 457.682 466.284 429.842 423.346 401.767L423.344 401.766C401.15 387.255 378.859 372.681 356.739 358.587C291.867 317.255 228.463 280.061 173.427 260.898C118.436 241.751 71.4051 240.475 39.7042 271.618C18.2926 292.653 6.36292 313.309 1.97013 333.378C-2.42488 353.457 0.745822 372.85 9.36614 391.309C26.5792 428.167 65.5548 461.373 109.684 489.239C153.847 517.127 203.329 539.762 241.754 555.421C260.97 563.252 277.428 569.342 289.084 573.474C294.911 575.54 299.539 577.117 302.711 578.177C304.296 578.708 305.518 579.109 306.344 579.378C306.757 579.512 307.071 579.614 307.282 579.682L307.521 579.758L307.582 579.778L307.597 579.782C307.601 579.784 307.603 579.784 307.905 578.831C308.208 577.878 308.206 577.877 308.203 577.876L308.188 577.872L308.13 577.853L307.894 577.778C307.686 577.711 307.374 577.61 306.963 577.476C306.142 577.209 304.925 576.809 303.345 576.281C300.184 575.224 295.568 573.65 289.752 571.589C278.12 567.465 261.692 561.386 242.509 553.569C204.137 537.931 154.775 515.348 110.751 487.548C66.6927 459.726 28.1371 426.776 11.1783 390.463C2.71264 372.335 -0.362758 353.389 3.92387 333.806C8.21272 314.212 19.8924 293.884 41.1058 273.044C71.9397 242.753 117.933 243.693 172.769 262.787C227.561 281.865 290.788 318.939 355.664 360.273C377.74 374.339 400.007 388.898 422.192 403.403L422.192 403.403C465.158 431.496 507.811 459.384 548.15 483.08C609.288 518.996 665.339 545.428 709.339 548.329C733.17 549.9 752.464 542.684 768.421 528.827C784.345 514.998 796.906 494.591 807.4 469.826C807.681 469.161 807.961 468.493 808.24 467.822Z" fill="#FCCD03"></path> <mask id="mask0_75_22" style="mask-type:alpha" maskUnits="userSpaceOnUse" x="1167" y="93" width="227" height="484"> <path d="M1167.41 93.3311H1215.41L1304.41 168.831L1393.41 567.831L1317.41 576.331L1167.41 93.3311Z" fill="#D9D9D9"></path> </mask> <g mask="url(#mask0_75_22)"> <g filter="url(#filter0_d_75_22)"> <path d="M1046.91 1.33112C1307.54 -14.7799 1328.91 562.831 1328.91 562.831" stroke="#FCCD03" stroke-width="2"></path> </g> </g> <defs> <filter id="filter0_d_75_22" x="1042.84" y="0.00012207" width="291.061" height="592.864" filterUnits="userSpaceOnUse" color-interpolation-filters="sRGB"> <feFlood flood-opacity="0" result="BackgroundImageFix"></feFlood> <feColorMatrix in="SourceAlpha" type="matrix" values="0 0 0 0 0 0 0 0 0 0 0 0 0 0 0 0 0 0 127 0" result="hardAlpha"></feColorMatrix> <feOffset dy="26"></feOffset> <feGaussianBlur stdDeviation="2"></feGaussianBlur> <feComposite in2="hardAlpha" operator="out"></feComposite> <feColorMatrix type="matrix" values="0 0 0 0 0 0 0 0 0 0 0 0 0 0 0 0 0 0 0.45 0"></feColorMatrix> <feBlend mode="normal" in2="BackgroundImageFix" result="effect1_dropShadow_75_22"></feBlend> <feBlend mode="normal" in="SourceGraphic" in2="effect1_dropShadow_75_22" result="shape"></feBlend> </filter> </defs> </svg> 