<?xml version="1.0" encoding="UTF-8"?> <svg xmlns="http://www.w3.org/2000/svg" width="474" height="182" viewBox="0 0 474 182" fill="none"> <path fill-rule="evenodd" clip-rule="evenodd" d="M86.9768 43.007C86.9314 48.6056 85.7834 54.1405 83.5983 59.2953C81.4132 64.4501 78.2338 69.1238 74.2418 73.0495C70.2499 76.9751 65.5235 80.0758 60.3328 82.1742C55.1422 84.2727 49.5889 85.3279 43.9903 85.2794C43.0722 85.2794 42.1949 85.2794 41.2973 85.2794V55.2481C42.1799 55.455 43.0837 55.5578 43.9903 55.5541C46.3709 55.5419 48.6945 54.8241 50.6672 53.4914C52.6399 52.1587 54.1732 50.271 55.073 48.0669C55.9728 45.8628 56.1989 43.4414 55.7226 41.1089C55.2462 38.7763 54.0889 36.6374 52.397 34.9626C50.7051 33.2877 48.5545 32.1523 46.2172 31.6997C43.8799 31.2471 41.4609 31.4978 39.2661 32.42C37.0713 33.3422 35.1993 34.8945 33.8867 36.8807C32.5741 38.8668 31.88 41.1976 31.892 43.5783V112.944H0.983398V43.007C1.08577 31.6998 5.67313 20.8959 13.7374 12.9693C21.8017 5.04278 32.683 0.642185 43.9903 0.73458C55.2956 0.642204 66.1749 5.04345 74.2359 12.9706C82.2969 20.8977 86.8798 31.7017 86.9768 43.007V43.007Z" fill="#FF2400"></path> <path fill-rule="evenodd" clip-rule="evenodd" d="M473.998 43.0069C473.95 48.6065 472.8 54.1418 470.612 59.2967C468.425 64.4516 465.244 69.1252 461.25 73.0506C457.256 76.976 452.529 80.0763 447.337 82.1745C442.145 84.2727 436.591 85.3277 430.991 85.2793C430.094 85.2793 429.196 85.2793 428.298 85.2793V55.2479C429.181 55.4526 430.085 55.5553 430.991 55.554C433.369 55.5419 435.691 54.8256 437.662 53.4957C439.633 52.1657 441.167 50.2816 442.068 48.0811C442.97 45.8805 443.2 43.4622 442.728 41.1313C442.257 38.8004 441.106 36.6614 439.42 34.9841C437.734 33.3068 435.589 32.1664 433.256 31.7069C430.923 31.2474 428.506 31.4893 426.31 32.4021C424.114 33.315 422.237 34.8578 420.917 36.8359C419.598 38.8141 418.893 41.1388 418.893 43.5169V112.944H387.984V43.0069C387.984 31.6008 392.515 20.6618 400.581 12.5964C408.646 4.53107 419.585 0 430.991 0C442.397 0 453.336 4.53107 461.402 12.5964C469.467 20.6618 473.998 31.6008 473.998 43.0069V43.0069Z" fill="#FF2400"></path> <path d="M127.29 16.1175C127.289 20.1866 125.675 24.0893 122.802 26.9712C121.377 28.4265 119.671 29.5766 117.788 30.3518C115.904 31.1269 113.883 31.5107 111.846 31.48C108.807 31.4787 105.837 30.5773 103.309 28.8895C100.782 27.2016 98.8113 24.803 97.6459 21.9963C96.4804 19.1896 96.1724 16.1006 96.7608 13.119C97.3491 10.1374 98.8074 7.39695 100.952 5.24335C102.369 3.7956 104.066 2.64977 105.938 1.8749C107.81 1.10002 109.82 0.712123 111.846 0.734563C113.872 0.723799 115.88 1.11389 117.755 1.88239C119.63 2.65088 121.334 3.7826 122.769 5.21238C124.205 6.64215 125.343 8.34175 126.119 10.2133C126.895 12.0849 127.293 14.0914 127.29 16.1175V16.1175Z" fill="#FF2400"></path> <path d="M127.291 39.498H96.4023V112.944H127.291V39.498Z" fill="#FF2400"></path> <path d="M283.181 71.5897V40.8442H232.177V71.5897H283.181Z" fill="#FF2400"></path> <path fill-rule="evenodd" clip-rule="evenodd" d="M222.709 112.944V43.0883C222.464 31.847 217.827 21.1487 209.79 13.2851C201.753 5.42152 190.956 1.01807 179.713 1.01807C168.469 1.01807 157.672 5.42152 149.635 13.2851C141.598 21.1487 136.961 31.847 136.716 43.0883V112.944H167.604V44.0064C167.631 43.8443 167.631 43.6788 167.604 43.5167C167.604 40.3081 168.879 37.2309 171.148 34.962C173.416 32.6931 176.494 31.4185 179.702 31.4185C182.911 31.4185 185.988 32.6931 188.257 34.962C190.526 37.2309 191.801 40.3081 191.801 43.5167V112.944H222.709Z" fill="#FF2400"></path> <path fill-rule="evenodd" clip-rule="evenodd" d="M378.579 2.08105V70.6717C378.334 81.913 373.697 92.6113 365.66 100.475C357.623 108.339 346.827 112.742 335.583 112.742C324.339 112.742 313.542 108.339 305.505 100.475C297.468 92.6113 292.831 81.913 292.586 70.6717V2.08105H323.474V69.7537C323.502 69.9157 323.502 70.0812 323.474 70.2433C323.474 73.452 324.749 76.5292 327.018 78.798C329.287 81.0669 332.364 82.3415 335.572 82.3415C338.781 82.3415 341.858 81.0669 344.127 78.798C346.396 76.5292 347.671 73.452 347.671 70.2433V2.08105H378.579Z" fill="#FF2400"></path> <path fill-rule="evenodd" clip-rule="evenodd" d="M446.802 127.531H0.983398V154.584C1.00501 161.777 3.88174 168.667 8.98131 173.74C14.0809 178.813 20.986 181.653 28.1789 181.637H446.802C453.995 181.653 460.9 178.813 466 173.74C471.1 168.667 473.976 161.777 473.998 154.584V127.531H446.802ZM379.599 163.132C381.041 168.573 384.883 171.293 391.126 171.293C392.714 171.312 394.296 171.092 395.818 170.64C397.137 170.201 398.357 169.508 399.409 168.6C400.398 167.737 401.191 166.673 401.735 165.479C402.285 164.19 402.556 162.799 402.531 161.398C402.666 159.026 401.893 156.692 400.368 154.87C398.492 152.999 396.121 151.704 393.533 151.136C392.126 150.769 390.963 150.422 390.065 150.096C389.3 149.824 388.568 149.469 387.882 149.035C387.431 148.694 387.056 148.263 386.78 147.77C386.564 147.282 386.459 146.752 386.474 146.219V146.076C386.46 145.623 386.559 145.172 386.762 144.766C386.965 144.36 387.266 144.011 387.637 143.751C388.584 143.106 389.717 142.791 390.861 142.853C392.002 142.703 393.158 142.978 394.11 143.625C395.061 144.272 395.742 145.246 396.022 146.362L401.368 144.159C399.858 139.711 396.431 137.467 391.167 137.467C389.659 137.448 388.158 137.669 386.719 138.12C385.488 138.512 384.35 139.151 383.373 139.997C382.492 140.804 381.796 141.792 381.333 142.894C380.843 144.055 380.6 145.306 380.619 146.566C380.557 147.727 380.725 148.889 381.113 149.985C381.502 151.081 382.104 152.089 382.884 152.952C384.891 154.751 387.354 155.965 390.004 156.461C391.106 156.733 392.189 157.074 393.248 157.481C393.988 157.725 394.678 158.098 395.288 158.583C395.751 158.934 396.116 159.397 396.349 159.929C396.558 160.462 396.661 161.03 396.655 161.602C396.678 162.189 396.567 162.773 396.33 163.311C396.094 163.848 395.737 164.325 395.288 164.703C394.207 165.489 392.889 165.878 391.554 165.805C390.121 165.876 388.699 165.514 387.474 164.764C386.341 163.79 385.53 162.496 385.148 161.051L379.599 163.132ZM120.497 163.642H133.778L136.614 170.661H142.98L128.556 137.651H125.842L111.561 170.661H117.824L120.497 163.642ZM127.168 147.056L131.718 158.501H122.659L127.168 147.056ZM94.8314 148.81V148.667C94.9184 147.237 94.6873 145.806 94.1546 144.476C93.6219 143.146 92.8009 141.951 91.7508 140.976C89.2463 138.969 86.0778 137.978 82.876 138.201H72.8588V170.661H78.9793V159.562H82.774C86.0025 159.759 89.1843 158.715 91.6692 156.645C92.7253 155.64 93.554 154.422 94.0995 153.07C94.645 151.719 94.8945 150.266 94.8314 148.81V148.81ZM87.2624 152.891C85.965 153.889 84.3457 154.376 82.7128 154.258H79.0609V143.547H82.7536C84.3863 143.431 86.0049 143.917 87.3032 144.914C87.8421 145.398 88.2636 145.999 88.5358 146.671C88.808 147.342 88.9237 148.067 88.8741 148.79C88.9264 149.537 88.8127 150.287 88.5411 150.986C88.2695 151.684 87.8468 152.314 87.3032 152.829L87.2624 152.891ZM170.91 157.909H168.502V170.722H162.382V138.201H172.583C175.518 138.037 178.415 138.935 180.743 140.731C181.739 141.599 182.525 142.681 183.041 143.897C183.557 145.113 183.79 146.43 183.722 147.749C183.78 149.817 183.172 151.848 181.988 153.543C180.79 155.153 179.143 156.374 177.255 157.053L184.599 170.661H177.805L170.91 157.909ZM168.38 153.095H171.664C173.121 153.162 174.558 152.738 175.745 151.891C176.227 151.43 176.612 150.876 176.874 150.262C177.137 149.649 177.272 148.988 177.272 148.321C177.272 147.653 177.137 146.993 176.874 146.379C176.612 145.765 176.227 145.211 175.745 144.75C174.578 143.86 173.13 143.418 171.664 143.506H168.502L168.38 153.095ZM217.976 144.057H228.014V138.201H201.92V143.995H211.937V170.661H218.058L217.976 144.057ZM274.836 138.263V170.905H272.327L253.965 150.096V170.661H248.008V137.916H250.782L269.144 158.664V138.263H274.836ZM317.333 170.722V165.295H304.398V156.747H315.619V151.32H304.398V143.547H316.823V138.201H298.196V170.661L317.333 170.722ZM347.609 157.828H345.079V170.64H338.959V138.201H349.16C352.095 138.037 354.992 138.935 357.32 140.731C358.316 141.599 359.102 142.681 359.618 143.897C360.134 145.113 360.367 146.43 360.299 147.749C360.354 149.813 359.754 151.842 358.585 153.543C357.382 155.157 355.728 156.377 353.832 157.053L361.36 170.661H354.485L347.609 157.828ZM345.079 153.013H348.364C349.82 153.075 351.255 152.652 352.444 151.809C352.922 151.345 353.301 150.79 353.561 150.177C353.82 149.564 353.953 148.905 353.953 148.239C353.953 147.573 353.82 146.914 353.561 146.301C353.301 145.688 352.922 145.133 352.444 144.669C351.277 143.778 349.829 143.336 348.364 143.424H345.039L345.079 153.013Z" fill="#00CFA6"></path> </svg> 