<?xml version="1.0" encoding="UTF-8"?> <svg xmlns="http://www.w3.org/2000/svg" width="1618" height="345" viewBox="0 0 1618 345" fill="none"> <path d="M219.774 117.989L205.911 183.382H153.596L181.323 52.5966H161.705L172.953 0.282471H362.591L351.344 52.5966H233.637L231.021 65.6751H322.571L311.324 117.989H219.774Z" fill="white"></path> <path d="M462.645 147.338L437.832 115.795H411.126L404.397 147.338H362.34L382.527 52.7107H424.584L419.958 73.7389H476.734L483.463 42.1966H368.859L377.901 0.140137H513.533L530.145 21.1684L514.374 94.7672L488.93 115.795L513.743 147.338H462.645Z" fill="white"></path> <path d="M1115.61 147.338L1099 126.31L1121.29 21.1684L1146.94 0.140137H1261.55L1277.95 21.1684L1269.12 63.2248H1227.06L1231.48 42.1966H1158.93L1145.47 105.281H1254.82L1245.99 147.338H1115.61Z" fill="white"></path> <path d="M1047.49 129.387L1042.69 110.923H979.913L967.543 129.387H926.922L989.515 37.0678H975.667L983.606 0.140137H1055.25L1088.11 129.387H1047.49ZM1027.55 37.0678H1026.26L1005.02 73.9954H1033.27L1027.55 37.0678Z" fill="white"></path> <path d="M534.669 129.387L554.241 37.0678H540.393L548.332 0.140137H682.195L674.255 37.0678H591.168L589.322 46.2997H653.945L646.006 83.2273H581.383L579.536 92.4592H662.623L654.684 129.387H534.669Z" fill="white"></path> <path d="M683.918 111.436L700.771 31.9389H688.847L695.684 0.140137H810.954L804.117 31.9389H732.57L730.98 39.8886H786.628L779.791 71.6874H724.143L722.553 79.6371H794.101L787.264 111.436H683.918Z" fill="white"></path> <path d="M890.543 111.436L871.782 87.5868H851.59L846.502 111.436H814.703L829.967 39.8886H861.766L858.268 55.788H901.196L906.284 31.9389H819.632L826.469 0.140137H929.02L941.581 16.0395L929.656 71.6874L910.418 87.5868L929.179 111.436H890.543Z" fill="white"></path> <path d="M1279.32 183.382L1307.05 52.5966H1287.43L1298.68 0.282471H1488.32L1477.07 52.5966H1359.36L1356.75 65.6751H1448.3L1437.05 117.989H1345.5L1342.88 131.068H1460.59L1449.34 183.382H1279.32Z" fill="white"></path> <path d="M699.008 268.046C701.771 268.046 704.551 268.179 707.347 268.447C710.143 268.714 712.823 269.145 715.389 269.747C717.951 270.345 720.351 271.097 722.578 271.996C724.811 272.894 726.75 273.977 728.397 275.243C730.044 276.51 731.335 277.965 732.268 279.611C733.2 281.258 733.668 283.102 733.668 285.129L720.881 287.027C720.881 285.593 720.263 284.306 719.034 283.156C717.801 282.007 716.171 281.041 714.139 280.259C712.108 279.478 709.775 278.88 707.146 278.462C704.517 278.044 701.804 277.839 699.004 277.839C696.341 277.839 693.712 278.031 691.112 278.412C688.516 278.796 686.192 279.369 684.144 280.134C682.096 280.903 680.428 281.856 679.149 283.006C677.866 284.155 677.226 285.497 677.226 287.027V307.805C677.226 309.335 677.866 310.66 679.149 311.776C680.432 312.892 682.096 313.824 684.144 314.572C686.192 315.32 688.512 315.876 691.112 316.244C693.712 316.612 696.341 316.792 699.004 316.792C701.8 316.792 704.513 316.595 707.146 316.194C709.775 315.797 712.108 315.22 714.139 314.472C716.171 313.724 717.801 312.792 719.034 311.676C720.267 310.56 720.881 309.268 720.881 307.805L733.668 310.998C733.668 312.796 733.2 314.447 732.268 315.943C731.335 317.44 730.048 318.781 728.397 319.964C726.75 321.147 724.811 322.171 722.578 323.037C720.351 323.902 717.951 324.617 715.389 325.185C712.827 325.749 710.143 326.176 707.347 326.46C704.551 326.74 701.771 326.882 699.008 326.882C696.245 326.882 693.47 326.74 690.694 326.46C687.915 326.176 685.239 325.749 682.677 325.185C680.115 324.617 677.724 323.902 675.509 323.037C673.293 322.171 671.362 321.147 669.715 319.964C668.068 318.786 666.777 317.452 665.845 315.968C664.912 314.489 664.448 312.833 664.448 310.998V285.129C664.448 283.102 664.912 281.258 665.845 279.611C666.777 277.965 668.068 276.506 669.715 275.243C671.362 273.977 673.293 272.899 675.509 271.996C677.724 271.097 680.111 270.349 682.677 269.747C685.239 269.149 687.915 268.714 690.694 268.447C693.47 268.179 696.241 268.046 699.008 268.046Z" fill="white"></path> <path d="M744.858 271.941C745.79 271.678 747.161 271.344 748.979 270.942C750.793 270.545 752.95 270.169 755.445 269.818C757.941 269.467 760.729 269.166 763.809 268.919C766.886 268.668 770.192 268.543 773.72 268.543C779.977 268.543 785.499 269.011 790.276 269.943C795.054 270.875 799.058 272.455 802.29 274.687C805.521 276.92 807.957 279.883 809.604 283.578C811.251 287.273 812.079 291.888 812.079 297.414C812.079 302.839 811.18 307.379 809.383 311.023C807.585 314.668 805.119 317.59 801.993 319.789C798.862 321.987 795.2 323.551 791.004 324.483C786.807 325.415 782.314 325.883 777.519 325.883C773.59 325.883 769.945 325.649 766.581 325.185C763.216 324.721 760.235 323.952 757.64 322.886V344.86H744.858V271.941ZM774.322 279.231C772.157 279.231 770.234 279.298 768.553 279.432C766.869 279.565 765.356 279.741 764.006 279.954C762.656 280.167 761.464 280.418 760.436 280.702C759.404 280.987 758.472 281.292 757.64 281.626V313.59C759.073 313.987 760.411 314.313 761.661 314.564C762.911 314.815 764.261 315.007 765.707 315.136C767.153 315.27 768.821 315.362 770.702 315.412C772.583 315.462 774.857 315.488 777.519 315.488C781.448 315.488 784.805 315.032 787.585 314.117C790.364 313.201 792.646 311.943 794.427 310.346C796.208 308.745 797.512 306.839 798.348 304.628C799.18 302.413 799.593 300.005 799.593 297.409C799.593 293.882 799.025 290.951 797.896 288.619C796.764 286.287 795.117 284.422 792.952 283.026C790.786 281.626 788.141 280.644 785.01 280.08C781.883 279.515 778.318 279.231 774.322 279.231Z" fill="white"></path> <path d="M857.33 268.944C858.994 268.944 861.009 269.028 863.374 269.195C865.74 269.362 868.202 269.651 870.769 270.069C873.331 270.487 875.868 271.051 878.384 271.766C880.897 272.481 883.162 273.413 885.177 274.562C887.192 275.712 888.813 277.087 890.046 278.684C891.279 280.28 891.894 282.161 891.894 284.326V322.982C889.098 323.546 885.933 324.027 882.406 324.428C879.375 324.796 875.764 325.126 871.567 325.427C867.37 325.728 862.693 325.879 857.535 325.879C852.406 325.879 846.956 325.662 841.179 325.227C835.402 324.796 829.367 324.048 823.076 322.982V305C823.076 303.069 823.532 301.376 824.447 299.93C825.362 298.484 826.62 297.242 828.217 296.21C829.814 295.177 831.695 294.329 833.86 293.664C836.025 293 838.358 292.465 840.853 292.068C843.348 291.666 845.948 291.395 848.644 291.244C851.34 291.094 854.036 291.018 856.733 291.018C860.829 291.018 864.315 291.278 867.195 291.792C870.075 292.31 872.466 292.866 874.359 293.464C876.558 294.195 878.372 295.014 879.806 295.913V287.821C879.806 286.454 879.471 285.284 878.807 284.301C878.142 283.319 877.243 282.487 876.111 281.802C874.978 281.12 873.678 280.569 872.215 280.155C870.748 279.741 869.218 279.415 867.621 279.181C866.024 278.951 864.399 278.801 862.752 278.734C861.105 278.667 859.562 278.633 858.133 278.633C856.632 278.633 855.035 278.675 853.338 278.759C851.641 278.842 849.949 279.001 848.268 279.231C846.584 279.465 844.97 279.791 843.424 280.205C841.877 280.623 840.502 281.179 839.306 281.877C838.107 282.579 837.15 283.419 836.435 284.402C835.72 285.384 835.361 286.558 835.361 287.921L822.976 284.723C822.976 282.496 823.523 280.552 824.622 278.905C825.722 277.258 827.176 275.85 828.99 274.683C830.805 273.517 832.895 272.56 835.26 271.812C837.622 271.064 840.08 270.478 842.625 270.06C845.171 269.647 847.708 269.354 850.241 269.187C852.766 269.028 855.132 268.944 857.33 268.944ZM879.806 305.502C878.974 304.77 877.941 304.056 876.708 303.353C875.475 302.651 873.962 302.028 872.161 301.481C870.359 300.933 868.223 300.482 865.744 300.131C863.266 299.78 860.357 299.608 857.029 299.608C854.066 299.608 851.261 299.667 848.615 299.784C845.969 299.901 843.645 300.235 841.647 300.783C839.649 301.33 838.065 302.204 836.903 303.404C835.737 304.603 835.152 306.271 835.152 308.398V314.79C838.082 315.254 841.313 315.638 844.841 315.939C848.369 316.24 852.298 316.39 856.628 316.39C860.089 316.39 863.78 316.265 867.692 316.014C871.605 315.763 875.642 315.258 879.806 314.493V305.502V305.502Z" fill="white"></path> <path d="M918.16 309.101C919.36 309.101 920.551 309.201 921.734 309.402C922.913 309.602 923.97 309.903 924.907 310.3C925.839 310.697 926.595 311.216 927.181 311.851C927.762 312.482 928.054 313.23 928.054 314.096V321.39C928.054 322.188 927.762 322.873 927.181 323.438C926.595 324.006 925.839 324.47 924.907 324.838C923.975 325.206 922.917 325.473 921.734 325.636C920.551 325.804 919.36 325.887 918.16 325.887C916.961 325.887 915.778 325.804 914.616 325.636C913.45 325.469 912.4 325.202 911.468 324.838C910.536 324.47 909.788 324.006 909.219 323.438C908.655 322.873 908.371 322.192 908.371 321.39V314.096C908.371 313.23 908.655 312.482 909.219 311.851C909.788 311.216 910.536 310.701 911.468 310.3C912.4 309.903 913.45 309.602 914.616 309.402C915.778 309.197 916.961 309.101 918.16 309.101Z" fill="white"></path> <path d="M974.798 268.046C977.561 268.046 980.341 268.179 983.137 268.447C985.934 268.714 988.613 269.145 991.179 269.747C993.742 270.345 996.141 271.097 998.369 271.996C1000.6 272.894 1002.54 273.977 1004.19 275.243C1005.83 276.51 1007.13 277.965 1008.06 279.611C1008.99 281.258 1009.46 283.102 1009.46 285.129L996.672 287.027C996.672 285.593 996.053 284.306 994.824 283.156C993.591 282.007 991.961 281.041 989.93 280.259C987.898 279.478 985.566 278.88 982.937 278.462C980.307 278.044 977.595 277.839 974.794 277.839C972.131 277.839 969.502 278.031 966.902 278.412C964.307 278.796 961.983 279.369 959.935 280.134C957.886 280.903 956.223 281.856 954.939 283.006C953.656 284.155 953.017 285.497 953.017 287.027V307.805C953.017 309.335 953.656 310.66 954.939 311.776C956.223 312.892 957.886 313.824 959.935 314.572C961.983 315.32 964.302 315.876 966.902 316.244C969.502 316.612 972.131 316.792 974.794 316.792C977.59 316.792 980.303 316.595 982.937 316.194C985.566 315.797 987.898 315.22 989.93 314.472C991.961 313.724 993.591 312.792 994.824 311.676C996.057 310.56 996.672 309.268 996.672 307.805L1009.46 310.998C1009.46 312.796 1008.99 314.447 1008.06 315.943C1007.13 317.44 1005.84 318.781 1004.19 319.964C1002.54 321.147 1000.6 322.171 998.369 323.037C996.141 323.902 993.742 324.617 991.179 325.185C988.617 325.749 985.934 326.176 983.137 326.46C980.341 326.74 977.561 326.882 974.798 326.882C972.035 326.882 969.26 326.74 966.484 326.46C963.705 326.176 961.03 325.749 958.467 325.185C955.905 324.617 953.514 323.902 951.299 323.037C949.083 322.171 947.152 321.147 945.505 319.964C943.859 318.786 942.567 317.452 941.635 315.968C940.703 314.489 940.239 312.833 940.239 310.998V285.129C940.239 283.102 940.703 281.258 941.635 279.611C942.567 277.965 943.859 276.506 945.505 275.243C947.152 273.977 949.083 272.899 951.299 271.996C953.514 271.097 955.901 270.349 958.467 269.747C961.03 269.149 963.705 268.714 966.484 268.447C969.26 268.179 972.031 268.046 974.798 268.046Z" fill="white"></path> <path d="M1034.53 325.879H1023.14V250.866H1034.53V325.879Z" fill="white"></path> <path d="M1064.5 307.801C1064.5 309.331 1065.06 310.614 1066.17 311.646C1067.28 312.679 1068.78 313.519 1070.66 314.167C1072.55 314.819 1074.72 315.283 1077.18 315.567C1079.65 315.851 1082.21 315.993 1084.87 315.993C1087.67 315.993 1090.3 315.835 1092.76 315.517C1095.23 315.199 1097.37 314.719 1099.21 314.071C1101.04 313.419 1102.49 312.578 1103.55 311.55C1104.62 310.518 1105.15 309.268 1105.15 307.805V268.944L1118.44 269.943V310.994C1118.44 312.792 1117.99 314.443 1117.12 315.939C1116.23 317.435 1115.01 318.777 1113.45 319.96C1111.88 321.143 1110.03 322.167 1107.9 323.032C1105.77 323.898 1103.47 324.612 1100.99 325.181C1098.51 325.745 1095.89 326.171 1093.14 326.456C1090.4 326.736 1087.64 326.878 1084.88 326.878C1082.08 326.878 1079.32 326.736 1076.59 326.456C1073.86 326.171 1071.25 325.745 1068.77 325.181C1066.29 324.612 1063.99 323.898 1061.85 323.032C1059.72 322.167 1057.87 321.143 1056.31 319.96C1054.75 318.781 1053.52 317.448 1052.64 315.964C1051.76 314.484 1051.32 312.829 1051.32 310.994V269.943L1064.5 268.944V307.801H1064.5Z" fill="white"></path> <path d="M1165.98 268.944C1171.11 268.944 1175.7 269.304 1179.74 270.019C1183.79 270.733 1187.2 271.841 1189.98 273.342C1192.76 274.838 1194.88 276.736 1196.35 279.035C1197.81 281.329 1198.54 284.059 1198.54 287.223V307.6C1198.54 310.764 1197.81 313.494 1196.35 315.793C1194.88 318.087 1192.76 319.989 1189.98 321.486C1187.2 322.982 1183.79 324.09 1179.74 324.809C1175.7 325.524 1171.11 325.883 1165.98 325.883C1163.12 325.883 1160.16 325.733 1157.12 325.432C1154.08 325.131 1151.13 324.842 1148.26 324.558C1145.41 324.278 1142.79 323.872 1140.42 323.346C1138.05 322.819 1136.01 322.368 1134.32 321.987V249.867H1147.4V272.539C1150.37 271.473 1153.47 270.608 1156.72 269.943C1159.96 269.279 1163.05 268.944 1165.98 268.944ZM1162.38 278.236C1160.65 278.236 1159.07 278.353 1157.64 278.587C1156.21 278.821 1154.89 279.118 1153.67 279.486C1152.45 279.854 1151.33 280.263 1150.3 280.711C1149.26 281.162 1148.3 281.601 1147.4 282.032V313.502C1148.3 313.803 1148.76 313.954 1148.79 313.958C1148.81 313.962 1148.83 313.966 1148.82 313.962C1148.82 313.962 1151.28 314.284 1156.2 314.927C1161.12 315.571 1164.17 315.893 1165.36 315.893C1167.16 315.893 1168.91 315.868 1170.62 315.818C1172.33 315.768 1173.93 315.626 1175.41 315.396C1176.89 315.162 1178.24 314.81 1179.48 314.346C1180.71 313.883 1181.77 313.222 1182.65 312.374C1183.54 311.525 1184.22 310.476 1184.72 309.23C1185.21 307.98 1185.46 306.442 1185.46 304.607V289.923C1185.46 287.294 1184.84 285.204 1183.61 283.658C1182.38 282.107 1180.71 280.936 1178.61 280.138C1176.52 279.34 1174.07 278.826 1171.27 278.592C1168.48 278.353 1165.52 278.236 1162.38 278.236Z" fill="white"></path> <path d="M472.16 302.129L458.709 256.726L498.31 268.769L532.125 245.144L566.626 268.769L604.241 257.546L594.56 285.284H605.75L620.075 243.744L615.259 241.946L578.873 228.784L575.124 238.887L599.718 247.786L566.626 256.956L532.125 232.809L498.31 256.956L443.62 239.718L461.606 302.129H472.16Z" fill="white"></path> <path d="M467.521 325.883L468.858 329.683H592.153L593.361 325.883L595.58 318.974H465.364L467.521 325.883Z" fill="white"></path> <path d="M184.141 237.517C184.141 237.517 434.232 172.936 803.327 172.936C1172.42 172.936 1422.51 237.517 1422.51 237.517" stroke="white" stroke-width="27.0539"></path> <path d="M1475.75 65.5933H1541.2L1529.86 117.956H1464.4L1475.75 65.5933Z" fill="white"></path> <path d="M1552.55 13.2307H1618L1606.65 65.5932H1541.2L1552.55 13.2307Z" fill="white"></path> <path d="M1529.86 117.956H1595.31L1583.96 170.318H1518.51L1529.86 117.956Z" fill="white"></path> <path d="M142.251 117.956L76.7982 117.956L88.1434 65.5931L153.596 65.5931L142.251 117.956Z" fill="white"></path> <path d="M65.453 170.318L-0.000112534 170.318L11.3451 117.956L76.7982 117.956L65.453 170.318Z" fill="white"></path> <path d="M88.1434 65.5933L22.6903 65.5933L34.0355 13.2308L99.4886 13.2308L88.1434 65.5933Z" fill="white"></path> </svg> 