<?xml version="1.0" encoding="UTF-8"?> <svg xmlns="http://www.w3.org/2000/svg" width="190" height="30" viewBox="0 0 190 30" fill="none"> <path d="M64.2763 9.8811C64.9717 9.8811 65.6713 9.91477 66.3751 9.9821C67.0789 10.0494 67.7532 10.1578 68.3991 10.3093C69.044 10.4597 69.6478 10.6491 70.2086 10.8752C70.7703 11.1014 71.2585 11.3739 71.6729 11.6927C72.0874 12.0114 72.4125 12.3775 72.6471 12.792C72.8817 13.2065 72.9995 13.6704 72.9995 14.1806L69.7815 14.6582C69.7815 14.2974 69.6258 13.9734 69.3165 13.6841C69.0061 13.3948 68.5958 13.1518 68.0846 12.9551C67.5733 12.7583 66.9863 12.6079 66.3246 12.5027C65.6629 12.3975 64.9801 12.3459 64.2753 12.3459C63.6052 12.3459 62.9434 12.3943 62.2891 12.4901C61.6358 12.5869 61.0509 12.731 60.5354 12.9235C60.0199 13.1171 59.6002 13.3569 59.2783 13.6462C58.9553 13.9355 58.7943 14.2732 58.7943 14.6582V19.8877C58.7943 20.2728 58.9553 20.6063 59.2783 20.8871C59.6012 21.168 60.0199 21.4026 60.5354 21.5909C61.0509 21.7792 61.6347 21.9192 62.2891 22.0117C62.9434 22.1043 63.6052 22.1496 64.2753 22.1496C64.9791 22.1496 65.6618 22.1001 66.3246 21.9991C66.9863 21.8992 67.5733 21.754 68.0846 21.5657C68.5958 21.3774 69.0061 21.1428 69.3165 20.8619C69.6268 20.581 69.7815 20.2559 69.7815 19.8877L72.9995 20.6915C72.9995 21.1438 72.8817 21.5594 72.6471 21.936C72.4125 22.3126 72.0885 22.6503 71.6729 22.948C71.2585 23.2457 70.7703 23.5035 70.2086 23.7212C69.6478 23.939 69.044 24.1189 68.3991 24.262C67.7542 24.404 67.0789 24.5113 66.3751 24.5828C65.6713 24.6533 64.9717 24.6891 64.2763 24.6891C63.5809 24.6891 62.8824 24.6533 62.1839 24.5828C61.4843 24.5113 60.811 24.404 60.1662 24.262C59.5213 24.1189 58.9195 23.939 58.362 23.7212C57.8044 23.5035 57.3184 23.2457 56.9039 22.948C56.4894 22.6514 56.1643 22.3158 55.9297 21.9423C55.6951 21.5699 55.5784 21.1533 55.5784 20.6915V14.1806C55.5784 13.6704 55.6951 13.2065 55.9297 12.792C56.1643 12.3775 56.4894 12.0104 56.9039 11.6927C57.3184 11.3739 57.8044 11.1025 58.362 10.8752C58.9195 10.6491 59.5202 10.4608 60.1662 10.3093C60.811 10.1588 61.4843 10.0494 62.1839 9.9821C62.8824 9.91477 63.5799 9.8811 64.2763 9.8811Z" fill="#D9D9D9"></path> <path d="M75.8157 10.8616C76.0503 10.7953 76.3954 10.7112 76.853 10.6102C77.3096 10.5103 77.8524 10.4156 78.4805 10.3272C79.1085 10.2388 79.8102 10.1631 80.5855 10.101C81.3598 10.0379 82.1919 10.0063 83.0798 10.0063C84.6547 10.0063 86.0444 10.1242 87.2468 10.3588C88.4492 10.5934 89.457 10.991 90.2702 11.5528C91.0834 12.1146 91.6968 12.8604 92.1112 13.7904C92.5257 14.7204 92.734 15.8818 92.734 17.2725C92.734 18.638 92.5079 19.7805 92.0555 20.6978C91.6031 21.6152 90.9824 22.3505 90.1956 22.9039C89.4076 23.4572 88.4861 23.8507 87.4298 24.0853C86.3736 24.3199 85.2427 24.4377 84.0361 24.4377C83.0472 24.4377 82.1299 24.3788 81.283 24.262C80.4361 24.1453 79.6861 23.9517 79.0328 23.6834V29.2138H75.8157V10.8616ZM83.2313 12.6963C82.6864 12.6963 82.2024 12.7131 81.7795 12.7468C81.3556 12.7805 80.9748 12.8247 80.635 12.8783C80.2952 12.932 79.9953 12.9951 79.7365 13.0666C79.4767 13.1382 79.2421 13.215 79.0328 13.2991V21.3438C79.3936 21.4437 79.7302 21.5258 80.0448 21.5889C80.3593 21.652 80.6991 21.7004 81.0631 21.733C81.4271 21.7667 81.8469 21.7898 82.3203 21.8024C82.7937 21.8151 83.366 21.8214 84.0361 21.8214C85.025 21.8214 85.8697 21.7067 86.5693 21.4763C87.2689 21.2459 87.8433 20.9293 88.2914 20.5274C88.7396 20.1245 89.0678 19.6448 89.2782 19.0883C89.4876 18.5307 89.5917 17.9248 89.5917 17.2715C89.5917 16.3836 89.4486 15.6461 89.1646 15.0591C88.8795 14.4721 88.465 14.0029 87.9201 13.6515C87.3751 13.2991 86.7092 13.0519 85.9213 12.9099C85.1344 12.7679 84.237 12.6963 83.2313 12.6963Z" fill="#D9D9D9"></path> <path d="M104.123 10.1072C104.542 10.1072 105.049 10.1282 105.644 10.1703C106.24 10.2124 106.859 10.285 107.505 10.3902C108.15 10.4954 108.789 10.6374 109.422 10.8173C110.054 10.9972 110.624 11.2318 111.131 11.5211C111.638 11.8104 112.047 12.1565 112.357 12.5583C112.667 12.9602 112.822 13.4336 112.822 13.9785V23.7075C112.118 23.8495 111.322 23.9705 110.434 24.0715C109.671 24.164 108.762 24.2471 107.706 24.3229C106.65 24.3986 105.473 24.4365 104.175 24.4365C102.884 24.4365 101.512 24.3818 100.058 24.2724C98.6042 24.164 97.0851 23.9757 95.5018 23.7075V19.1817C95.5018 18.6957 95.6165 18.2697 95.8469 17.9057C96.0773 17.5417 96.3939 17.2292 96.7958 16.9694C97.1976 16.7095 97.671 16.496 98.216 16.3287C98.7609 16.1614 99.3479 16.0268 99.976 15.9269C100.604 15.8259 101.258 15.7575 101.937 15.7196C102.615 15.6817 103.294 15.6628 103.973 15.6628C105.003 15.6628 105.881 15.728 106.606 15.8574C107.331 15.9879 107.932 16.1278 108.409 16.2782C108.962 16.4623 109.419 16.6685 109.78 16.8947V14.858C109.78 14.514 109.695 14.2195 109.528 13.9722C109.361 13.725 109.135 13.5157 108.85 13.3431C108.565 13.1717 108.237 13.0328 107.869 12.9286C107.5 12.8245 107.115 12.7424 106.713 12.6835C106.311 12.6257 105.902 12.5878 105.487 12.571C105.073 12.5541 104.685 12.5457 104.325 12.5457C103.947 12.5457 103.545 12.5562 103.118 12.5773C102.691 12.5983 102.265 12.6383 101.842 12.6962C101.418 12.7551 101.012 12.8371 100.623 12.9413C100.234 13.0465 99.8876 13.1864 99.5867 13.3621C99.2848 13.5388 99.0439 13.7503 98.864 13.9975C98.6841 14.2447 98.5936 14.5403 98.5936 14.8833L95.4766 14.0785C95.4766 13.5178 95.6144 13.0286 95.8911 12.6141C96.1677 12.1996 96.5338 11.8451 96.9904 11.5516C97.447 11.2581 97.973 11.0172 98.5684 10.8289C99.1628 10.6405 99.7814 10.4933 100.422 10.3881C101.063 10.2839 101.701 10.2103 102.339 10.1682C102.974 10.1282 103.57 10.1072 104.123 10.1072ZM109.78 19.308C109.57 19.1239 109.31 18.944 109 18.7673C108.69 18.5905 108.309 18.4338 107.855 18.296C107.402 18.1581 106.864 18.0445 106.241 17.9562C105.617 17.8678 104.885 17.8247 104.047 17.8247C103.301 17.8247 102.595 17.8394 101.93 17.8688C101.264 17.8983 100.679 17.9825 100.176 18.1203C99.673 18.2581 99.2743 18.478 98.9818 18.7799C98.6883 19.0818 98.541 19.5016 98.541 20.037V21.6455C99.2785 21.7623 100.092 21.8591 100.98 21.9348C101.867 22.0106 102.856 22.0485 103.946 22.0485C104.817 22.0485 105.746 22.0169 106.731 21.9538C107.716 21.8907 108.732 21.7634 109.78 21.5708V19.308Z" fill="#D9D9D9"></path> <path d="M119.433 20.2139C119.735 20.2139 120.034 20.2391 120.332 20.2896C120.629 20.3401 120.895 20.4159 121.131 20.5158C121.365 20.6157 121.556 20.7462 121.703 20.9061C121.849 21.0649 121.923 21.2532 121.923 21.471V23.3068C121.923 23.5077 121.849 23.6802 121.703 23.8222C121.556 23.9653 121.365 24.0821 121.131 24.1747C120.896 24.2672 120.63 24.3346 120.332 24.3756C120.034 24.4177 119.735 24.4387 119.433 24.4387C119.131 24.4387 118.833 24.4177 118.541 24.3756C118.247 24.3335 117.983 24.2662 117.748 24.1747C117.514 24.0821 117.326 23.9653 117.183 23.8222C117.04 23.6802 116.969 23.5087 116.969 23.3068V21.471C116.969 21.2532 117.04 21.0649 117.183 20.9061C117.326 20.7462 117.514 20.6168 117.748 20.5158C117.983 20.4159 118.247 20.3401 118.541 20.2896C118.833 20.2381 119.131 20.2139 119.433 20.2139Z" fill="#D9D9D9"></path> <path d="M133.687 9.8811C134.383 9.8811 135.082 9.91477 135.786 9.9821C136.49 10.0494 137.164 10.1578 137.81 10.3093C138.455 10.4597 139.059 10.6491 139.62 10.8752C140.181 11.1014 140.67 11.3739 141.084 11.6927C141.499 12.0114 141.824 12.3775 142.058 12.792C142.293 13.2065 142.411 13.6704 142.411 14.1806L139.193 14.6582C139.193 14.2974 139.037 13.9734 138.728 13.6841C138.417 13.3948 138.007 13.1518 137.496 12.9551C136.984 12.7583 136.397 12.6079 135.736 12.5027C135.074 12.3975 134.391 12.3459 133.686 12.3459C133.016 12.3459 132.354 12.3943 131.7 12.4901C131.047 12.5869 130.462 12.731 129.946 12.9235C129.431 13.1171 129.012 13.3569 128.689 13.6462C128.366 13.9355 128.205 14.2732 128.205 14.6582V19.8877C128.205 20.2728 128.366 20.6063 128.689 20.8871C129.012 21.168 129.431 21.4026 129.946 21.5909C130.462 21.7792 131.046 21.9192 131.7 22.0117C132.354 22.1043 133.016 22.1496 133.686 22.1496C134.39 22.1496 135.073 22.1001 135.736 21.9991C136.397 21.8992 136.984 21.754 137.496 21.5657C138.007 21.3774 138.417 21.1428 138.728 20.8619C139.038 20.581 139.193 20.2559 139.193 19.8877L142.411 20.6915C142.411 21.1438 142.293 21.5594 142.058 21.936C141.824 22.3126 141.5 22.6503 141.084 22.948C140.67 23.2457 140.181 23.5035 139.62 23.7212C139.059 23.939 138.455 24.1189 137.81 24.262C137.165 24.404 136.49 24.5113 135.786 24.5828C135.082 24.6533 134.383 24.6891 133.687 24.6891C132.992 24.6891 132.293 24.6533 131.595 24.5828C130.895 24.5113 130.222 24.404 129.577 24.262C128.932 24.1189 128.331 23.939 127.773 23.7212C127.215 23.5035 126.729 23.2457 126.315 22.948C125.9 22.6514 125.575 22.3158 125.341 21.9423C125.106 21.5699 124.989 21.1533 124.989 20.6915V14.1806C124.989 13.6704 125.106 13.2065 125.341 12.792C125.575 12.3775 125.9 12.0104 126.315 11.6927C126.729 11.3739 127.215 11.1025 127.773 10.8752C128.331 10.6491 128.931 10.4608 129.577 10.3093C130.222 10.1588 130.895 10.0494 131.595 9.9821C132.293 9.91477 132.991 9.8811 133.687 9.8811Z" fill="#D9D9D9"></path> <path d="M148.721 24.4368H145.855V5.55762H148.721V24.4368Z" fill="#D9D9D9"></path> <path d="M156.262 19.8866C156.262 20.2716 156.403 20.5946 156.684 20.8544C156.964 21.1143 157.342 21.3257 157.815 21.4888C158.288 21.6529 158.836 21.7697 159.455 21.8412C160.076 21.9127 160.721 21.9485 161.391 21.9485C162.095 21.9485 162.756 21.9085 163.377 21.8286C163.998 21.7486 164.537 21.6277 164.999 21.4646C165.46 21.3005 165.824 21.089 166.092 20.8302C166.36 20.5704 166.495 20.2558 166.495 19.8876V10.1072L169.838 10.3586V20.6903C169.838 21.1427 169.727 21.5582 169.506 21.9348C169.284 22.3115 168.976 22.6491 168.582 22.9469C168.189 23.2446 167.723 23.5023 167.187 23.7201C166.651 23.9378 166.071 24.1177 165.446 24.2608C164.822 24.4028 164.165 24.5101 163.473 24.5817C162.782 24.6522 162.088 24.6879 161.392 24.6879C160.688 24.6879 159.993 24.6522 159.306 24.5817C158.619 24.5101 157.962 24.4028 157.339 24.2608C156.715 24.1177 156.134 23.9378 155.597 23.7201C155.061 23.5023 154.596 23.2446 154.202 22.9469C153.809 22.6502 153.5 22.3146 153.279 21.9411C153.057 21.5687 152.945 21.1521 152.945 20.6903V10.3586L156.263 10.1072V19.8866H156.262Z" fill="#D9D9D9"></path> <path d="M181.805 10.1072C183.095 10.1072 184.25 10.1977 185.267 10.3776C186.285 10.5575 187.144 10.8363 187.843 11.214C188.543 11.5906 189.077 12.0682 189.447 12.6468C189.815 13.2243 190 13.9113 190 14.7077V19.8362C190 20.6325 189.816 21.3195 189.447 21.8981C189.077 22.4756 188.544 22.9543 187.843 23.3309C187.144 23.7075 186.285 23.9863 185.267 24.1673C184.25 24.3471 183.095 24.4376 181.805 24.4376C181.083 24.4376 180.341 24.3997 179.575 24.324C178.809 24.2483 178.066 24.1757 177.345 24.1041C176.626 24.0336 175.968 23.9316 175.371 23.7991C174.774 23.6665 174.262 23.5529 173.835 23.4572V5.30591H177.129V11.012C177.875 10.7437 178.655 10.5259 179.473 10.3587C180.29 10.1914 181.066 10.1072 181.805 10.1072ZM180.899 12.4458C180.464 12.4458 180.065 12.4753 179.705 12.5342C179.344 12.5931 179.012 12.6678 178.706 12.7604C178.4 12.853 178.117 12.9561 177.857 13.0686C177.597 13.1822 177.354 13.2927 177.128 13.4011V21.3216C177.354 21.3973 177.471 21.4352 177.477 21.4363C177.483 21.4373 177.488 21.4384 177.486 21.4373C177.485 21.4373 178.104 21.5183 179.342 21.6803C180.58 21.8423 181.348 21.9233 181.648 21.9233C182.101 21.9233 182.542 21.917 182.973 21.9044C183.403 21.8918 183.805 21.856 184.177 21.7981C184.55 21.7392 184.89 21.6509 185.201 21.5341C185.511 21.4173 185.777 21.2511 186 21.0375C186.223 20.824 186.396 20.5599 186.52 20.2464C186.644 19.9319 186.706 19.5448 186.706 19.0829V15.3872C186.706 14.7255 186.552 14.1995 186.241 13.8103C185.931 13.42 185.512 13.1254 184.984 12.9245C184.457 12.7236 183.841 12.5942 183.137 12.5353C182.433 12.4753 181.687 12.4458 180.899 12.4458Z" fill="#D9D9D9"></path> <path d="M7.18307 18.4595L3.79773 7.03263L13.7644 10.0635L22.2751 4.11754L30.9583 10.0635L40.4253 7.23883L37.9888 14.2199H40.8051L44.4103 3.76512L43.1984 3.31275L34.0407 0L33.097 2.54269L39.287 4.7824L30.9583 7.09049L22.2751 1.01308L13.7644 7.09049L0 2.75204L4.52677 18.4595H7.18307Z" fill="#D9D9D9"></path> <path d="M6.01537 24.4379L6.35201 25.3942H37.3829L37.6869 24.4379L38.2456 22.699H5.47253L6.01537 24.4379Z" fill="#D9D9D9"></path> </svg> 