<?xml version="1.0" encoding="UTF-8"?> <svg xmlns="http://www.w3.org/2000/svg" width="18" height="18" viewBox="0 0 18 18" fill="none"> <path d="M15.37 1.91H13.435V0.5C13.435 0.367392 13.3823 0.240215 13.2886 0.146446C13.1948 0.0526783 13.0676 0 12.935 0C12.8024 0 12.6752 0.0526783 12.5814 0.146446C12.4877 0.240215 12.435 0.367392 12.435 0.5V1.91H5.435V0.5C5.435 0.367392 5.38232 0.240215 5.28855 0.146446C5.19479 0.0526783 5.06761 0 4.935 0C4.80239 0 4.67521 0.0526783 4.58145 0.146446C4.48768 0.240215 4.435 0.367392 4.435 0.5V1.91H2.5C1.83696 1.91 1.20107 2.17339 0.732233 2.64223C0.263392 3.11107 0 3.74696 0 4.41V15.41C0 16.073 0.263392 16.7089 0.732233 17.1778C1.20107 17.6466 1.83696 17.91 2.5 17.91H15.37C15.6983 17.91 16.0234 17.8453 16.3267 17.7197C16.63 17.5941 16.9056 17.4099 17.1378 17.1778C17.3699 16.9456 17.5541 16.67 17.6797 16.3667C17.8053 16.0634 17.87 15.7383 17.87 15.41V4.41C17.87 4.0817 17.8053 3.75661 17.6797 3.45329C17.5541 3.14998 17.3699 2.87438 17.1378 2.64223C16.9056 2.41009 16.63 2.22594 16.3267 2.1003C16.0234 1.97466 15.6983 1.91 15.37 1.91ZM16.87 15.41C16.87 15.8078 16.712 16.1894 16.4307 16.4707C16.1494 16.752 15.7678 16.91 15.37 16.91H2.5C2.10218 16.91 1.72064 16.752 1.43934 16.4707C1.15804 16.1894 1 15.8078 1 15.41V6.99H16.87V15.41ZM16.87 5.99H1V4.41C1 4.01218 1.15804 3.63064 1.43934 3.34934C1.72064 3.06804 2.10218 2.91 2.5 2.91H4.435V3.5C4.435 3.63261 4.48768 3.75979 4.58145 3.85355C4.67521 3.94732 4.80239 4 4.935 4C5.06761 4 5.19479 3.94732 5.28855 3.85355C5.38232 3.75979 5.435 3.63261 5.435 3.5V2.91H12.435V3.5C12.435 3.63261 12.4877 3.75979 12.5814 3.85355C12.6752 3.94732 12.8024 4 12.935 4C13.0676 4 13.1948 3.94732 13.2886 3.85355C13.3823 3.75979 13.435 3.63261 13.435 3.5V2.91H15.375C15.7728 2.91 16.1544 3.06804 16.4357 3.34934C16.717 3.63064 16.875 4.01218 16.875 4.41L16.87 5.99Z" fill="white"></path> </svg> 