<?xml version="1.0" encoding="UTF-8"?> <svg xmlns="http://www.w3.org/2000/svg" fill="none" height="30" viewBox="0 0 152 30" width="110"> <g clip-path="url(#clip0)"> <path d="M149.816 7.64008H117.851V8.34946H149.816V7.64008Z" fill="#FF5500"></path> <path d="M52.2041 7.64008H17.7988V8.34946H52.2041V7.64008Z" fill="#FF5500"></path> <path d="M111.516 7.64008H58.5317V8.34946H111.516V7.64008Z" fill="#FF5500"></path> <path d="M19.4654 0.794495H18.5361V4.58262H19.4654V0.794495Z" fill="#990000"></path> <path d="M24.6724 2.10686H24.6865L26.233 4.58972H27.2829V0.794495H26.382L26.4033 3.27026H26.3891L24.8497 0.794495H23.7998V4.58972H24.6936L24.6724 2.10686Z" fill="#990000"></path> <path d="M33.0999 3.83776C33.0503 3.87323 32.9935 3.89451 32.9297 3.9087C32.8658 3.92289 32.7949 3.92998 32.731 3.92998C32.5821 3.92998 32.426 3.89451 32.277 3.81648C32.121 3.73845 32.0004 3.64623 31.9082 3.53273L31.3052 4.1428C31.4754 4.32015 31.6882 4.45493 31.9436 4.54715C32.199 4.63937 32.4615 4.68903 32.7381 4.68903C32.9226 4.68903 33.107 4.66065 33.2844 4.611C33.4617 4.56134 33.6178 4.48331 33.7526 4.38399C33.8873 4.27758 34.0008 4.14989 34.0789 3.99383C34.1569 3.83776 34.1995 3.64623 34.1995 3.42632C34.1995 3.23478 34.164 3.07872 34.086 2.95103C34.0079 2.82334 33.9157 2.71693 33.8022 2.6318C33.6887 2.54668 33.561 2.47574 33.4192 2.42608C33.2773 2.37643 33.1425 2.32677 33.0148 2.2842C32.9226 2.25583 32.8445 2.22745 32.7736 2.19908C32.7027 2.1707 32.6388 2.14233 32.5892 2.11395C32.5395 2.08558 32.4969 2.04301 32.4686 2.00045C32.4402 1.95789 32.426 1.90114 32.426 1.83729C32.426 1.75926 32.4402 1.70251 32.4757 1.65285C32.5111 1.60319 32.5537 1.56772 32.6034 1.53225C32.653 1.50388 32.7098 1.4826 32.7736 1.46841C32.8375 1.46132 32.9013 1.45422 32.958 1.45422C33.0786 1.45422 33.1992 1.4826 33.3269 1.53935C33.4546 1.5961 33.561 1.67413 33.6391 1.78054L34.2279 1.16337C34.0505 1.0144 33.859 0.900899 33.632 0.822866C33.405 0.744834 33.1851 0.702271 32.9722 0.702271C32.7949 0.702271 32.6104 0.723552 32.4402 0.766115C32.2628 0.808679 32.1068 0.879617 31.9649 0.978932C31.823 1.07825 31.7095 1.19884 31.6244 1.34781C31.5393 1.49678 31.4967 1.68123 31.4967 1.88695C31.4967 2.0572 31.5251 2.20617 31.5818 2.31967C31.6386 2.44027 31.7095 2.53958 31.8017 2.62471C31.894 2.70984 32.0004 2.77368 32.1139 2.83043C32.2345 2.88718 32.348 2.92975 32.4757 2.97231C32.6034 3.01487 32.7169 3.05034 32.8162 3.07872C32.9155 3.11419 33.0006 3.14966 33.0645 3.19222C33.1283 3.23478 33.1851 3.27735 33.2205 3.327C33.256 3.37666 33.2773 3.44051 33.2773 3.51145C33.2773 3.58948 33.2631 3.65332 33.2347 3.70298C33.1921 3.75973 33.1496 3.80229 33.0999 3.83776Z" fill="#990000"></path> <path d="M39.2716 3.15677H39.7327C39.9313 3.15677 40.1228 3.13549 40.3073 3.09292C40.4917 3.05036 40.6549 2.97942 40.7967 2.8872C40.9386 2.79498 41.0521 2.67439 41.1302 2.51832C41.2153 2.36935 41.2578 2.17781 41.2578 1.9579C41.2578 1.73799 41.2224 1.56065 41.1443 1.41168C41.0663 1.2627 40.9599 1.14211 40.8251 1.04989C40.6903 0.957668 40.5343 0.893823 40.3498 0.851259C40.1654 0.808696 39.9738 0.787415 39.761 0.787415H38.3564V4.57554H39.2786V3.15677H39.2716ZM39.2716 1.53937H39.6759C39.761 1.53937 39.8391 1.54646 39.9171 1.55355C39.9951 1.56774 40.0661 1.58902 40.1228 1.6174C40.1867 1.65287 40.2292 1.69543 40.2718 1.75218C40.3073 1.80893 40.3285 1.87987 40.3285 1.97209C40.3285 2.06431 40.3073 2.13525 40.2718 2.192C40.2363 2.24875 40.1867 2.29841 40.1228 2.33388C40.059 2.36935 39.988 2.39772 39.91 2.41191C39.832 2.4261 39.7468 2.43319 39.6617 2.43319H39.2716V1.53937Z" fill="#990000"></path> <path d="M46.2804 0.794495H45.3511V4.58262H46.2804V0.794495Z" fill="#990000"></path> <path d="M51.5157 3.08582H51.8278L52.6578 4.58972H53.7361L52.7358 2.96522C52.9841 2.88719 53.1828 2.76659 53.3175 2.58925C53.4594 2.4119 53.5304 2.19908 53.5304 1.9437C53.5304 1.72379 53.4878 1.54645 53.4027 1.39747C53.3175 1.2485 53.2111 1.135 53.0693 1.04278C52.9274 0.95056 52.7713 0.893809 52.6011 0.851246C52.4308 0.808682 52.2464 0.794495 52.0619 0.794495H50.6006V4.58262H51.5015V3.08582H51.5157ZM51.5086 1.53935H52.0052C52.0761 1.53935 52.1471 1.54645 52.218 1.55354C52.2889 1.56773 52.3599 1.58191 52.4166 1.61738C52.4734 1.64576 52.523 1.68832 52.5656 1.74507C52.6011 1.80182 52.6223 1.87276 52.6223 1.96498C52.6223 2.0643 52.6011 2.14233 52.5585 2.19908C52.5159 2.26293 52.4663 2.30549 52.3953 2.34096C52.3315 2.37643 52.2606 2.39771 52.1754 2.4048C52.0974 2.41899 52.0194 2.42609 51.9413 2.42609H51.5015V1.53935H51.5086Z" fill="#990000"></path> <path d="M60.4112 3.8023H58.6306V3.02197H60.2197V2.28421H58.6306V1.56773H60.3119V0.794495H57.7368V4.58972H60.4112V3.8023Z" fill="#990000"></path> <path d="M66.7748 4.47622C67.0302 4.40528 67.2572 4.29177 67.4629 4.13571C67.6686 3.97964 67.8318 3.78102 67.9524 3.53982C68.0801 3.29863 68.1368 3.01488 68.1368 2.68147C68.1368 2.32677 68.073 2.02173 67.9453 1.78054C67.8176 1.53935 67.6545 1.34782 67.4487 1.19885C67.243 1.05697 67.0089 0.95056 66.7464 0.886715C66.484 0.82287 66.2144 0.794495 65.9448 0.794495H64.5615V4.58262H65.9874C66.257 4.58972 66.5123 4.54715 66.7748 4.47622ZM65.4695 3.7952V1.58191H65.9306C66.0867 1.58191 66.2428 1.6032 66.3917 1.63867C66.5407 1.67414 66.6755 1.73089 66.789 1.81601C66.9096 1.90114 67.0018 2.01464 67.0728 2.15652C67.1437 2.2984 67.1792 2.47574 67.1792 2.68856C67.1792 2.90138 67.1437 3.07872 67.0728 3.2206C67.0018 3.36248 66.9096 3.47598 66.789 3.56111C66.6684 3.64623 66.5336 3.71008 66.3847 3.74555C66.2286 3.78102 66.0725 3.8023 65.9094 3.8023H65.4695V3.7952Z" fill="#990000"></path> <path d="M83.5731 3.83778C83.5234 3.87325 83.4667 3.89453 83.4028 3.90872C83.339 3.9229 83.268 3.93 83.2042 3.93C83.0552 3.93 82.8992 3.89453 82.7502 3.8165C82.5941 3.73846 82.4735 3.64624 82.3813 3.53274L81.7783 4.14281C81.9486 4.32016 82.1614 4.45494 82.4168 4.54716C82.6722 4.63938 82.9346 4.68904 83.2113 4.68904C83.3957 4.68904 83.5802 4.66067 83.7575 4.61101C83.9349 4.56135 84.0909 4.48332 84.2257 4.38401C84.3605 4.2776 84.474 4.14991 84.552 3.99384C84.6301 3.83778 84.6726 3.64624 84.6726 3.42633C84.6726 3.2348 84.6372 3.07873 84.5591 2.95104C84.4811 2.82335 84.3889 2.71694 84.2754 2.63182C84.1619 2.54669 84.0342 2.47575 83.8923 2.4261C83.7504 2.37644 83.6156 2.32678 83.488 2.28422C83.3957 2.25584 83.3177 2.22747 83.2468 2.19909C83.1758 2.17072 83.112 2.14234 83.0623 2.11397C83.0127 2.08559 82.9701 2.04303 82.9417 2.00046C82.9133 1.9579 82.8992 1.90115 82.8992 1.8373C82.8992 1.75927 82.9133 1.70252 82.9488 1.65286C82.9843 1.60321 83.0268 1.56774 83.0765 1.53227C83.1262 1.50389 83.1829 1.48261 83.2468 1.46842C83.3106 1.46133 83.3745 1.45424 83.4312 1.45424C83.5518 1.45424 83.6724 1.48261 83.8001 1.53936C83.9278 1.59611 84.0342 1.67415 84.1122 1.78055L84.701 1.16339C84.5308 1.00732 84.3321 0.893819 84.1122 0.815786C83.8852 0.737754 83.6653 0.69519 83.4525 0.69519C83.2751 0.69519 83.0907 0.716472 82.9204 0.759035C82.7431 0.801599 82.587 0.872537 82.4451 0.971852C82.3033 1.07117 82.1898 1.19176 82.1046 1.34073C82.0195 1.4897 81.9769 1.67415 81.9769 1.87987C81.9769 2.05012 82.0053 2.19909 82.0621 2.31259C82.1188 2.43319 82.1898 2.5325 82.282 2.61763C82.3742 2.70276 82.4806 2.7666 82.5941 2.82335C82.7147 2.8801 82.8282 2.92267 82.9559 2.96523C83.0836 3.00779 83.1971 3.04326 83.2964 3.07164C83.3957 3.10711 83.4809 3.14258 83.5447 3.18514C83.6085 3.2277 83.6653 3.27027 83.7008 3.31992C83.7362 3.36958 83.7575 3.43343 83.7575 3.50437C83.7575 3.5824 83.7433 3.64624 83.715 3.6959C83.6582 3.75974 83.6156 3.80231 83.5731 3.83778Z" fill="#990000"></path> <path d="M89.7447 0.794495H88.8154V4.58262H89.7447V0.794495Z" fill="#990000"></path> <path d="M94.9587 2.10686H94.9729L96.5123 4.58972H97.5622V0.794495H96.6613L96.6826 3.27026H96.6684L95.1361 0.794495H94.0791V4.58972H94.98L94.9587 2.10686Z" fill="#990000"></path> <path d="M102.301 4.13575C102.485 4.3131 102.705 4.44788 102.953 4.5472C103.202 4.64651 103.478 4.68908 103.769 4.68908C104.095 4.68908 104.379 4.63232 104.628 4.51882C104.876 4.40532 105.089 4.25635 105.252 4.06481L104.606 3.46893C104.521 3.58243 104.415 3.67465 104.273 3.74559C104.138 3.81653 103.975 3.852 103.79 3.852C103.634 3.852 103.485 3.82362 103.351 3.76687C103.216 3.71012 103.102 3.63209 103.01 3.52568C102.918 3.42637 102.84 3.29868 102.783 3.1568C102.726 3.01492 102.705 2.85886 102.705 2.6886C102.705 2.51835 102.733 2.36938 102.783 2.2275C102.84 2.08562 102.911 1.96503 103.01 1.85862C103.109 1.75221 103.223 1.67418 103.358 1.61743C103.493 1.56068 103.641 1.5323 103.805 1.5323C103.954 1.5323 104.095 1.56068 104.237 1.61743C104.379 1.67418 104.493 1.75931 104.578 1.8799L105.202 1.26273C105.039 1.07829 104.826 0.94351 104.564 0.851289C104.301 0.759069 104.039 0.709412 103.769 0.709412C103.478 0.709412 103.202 0.759069 102.953 0.851289C102.698 0.94351 102.478 1.07829 102.294 1.24855C102.109 1.4188 101.96 1.63162 101.854 1.8799C101.747 2.12819 101.698 2.39775 101.698 2.70279C101.698 3.00073 101.747 3.2703 101.854 3.51859C101.974 3.74559 102.123 3.95841 102.301 4.13575Z" fill="#990000"></path> <path d="M111.87 3.8023H110.09V3.02197H111.679V2.28421H110.09V1.56773H111.771V0.794495H109.196V4.58972H111.87V3.8023Z" fill="#990000"></path> <path d="M126.746 1.6245C126.838 1.51809 126.966 1.46844 127.115 1.46844C127.257 1.46844 127.377 1.511 127.463 1.59613C127.548 1.68125 127.59 1.78766 127.59 1.92244C127.59 2.03595 127.562 2.14235 127.505 2.23458C127.448 2.3268 127.37 2.41902 127.278 2.50414L125.788 3.83779V4.58265H128.555V3.80232H126.994L127.881 3.022C127.966 2.94396 128.051 2.86593 128.129 2.7808C128.207 2.70277 128.286 2.61055 128.342 2.51833C128.406 2.42611 128.456 2.3268 128.491 2.21329C128.527 2.10689 128.548 1.9792 128.548 1.84441C128.548 1.64578 128.513 1.47553 128.434 1.33365C128.356 1.19178 128.25 1.06409 128.122 0.971865C127.995 0.872551 127.846 0.801612 127.675 0.759049C127.512 0.716486 127.335 0.68811 127.165 0.68811C126.98 0.68811 126.803 0.716486 126.633 0.773237C126.462 0.829988 126.313 0.90802 126.186 1.01443C126.058 1.12084 125.952 1.24853 125.867 1.3975C125.781 1.54647 125.732 1.71672 125.71 1.91535L126.583 2.03595C126.59 1.86569 126.647 1.73091 126.746 1.6245Z" fill="#990000"></path> <path d="M133.046 4.08606C133.166 4.2705 133.322 4.41948 133.514 4.52588C133.705 4.63229 133.932 4.68904 134.209 4.68904C134.479 4.68904 134.713 4.63229 134.897 4.52588C135.089 4.41948 135.238 4.2705 135.358 4.08606C135.479 3.90162 135.564 3.68881 135.621 3.44761C135.677 3.20642 135.699 2.95104 135.699 2.68148C135.699 2.41191 135.67 2.15653 135.621 1.92243C135.564 1.68124 135.479 1.46842 135.358 1.29108C135.238 1.11373 135.082 0.964758 134.897 0.85835C134.706 0.751941 134.479 0.69519 134.209 0.69519C133.939 0.69519 133.705 0.751941 133.514 0.85835C133.322 0.964758 133.166 1.10664 133.046 1.29108C132.925 1.47552 132.84 1.68124 132.783 1.92243C132.726 2.16362 132.705 2.419 132.705 2.68148C132.705 2.94395 132.733 3.20642 132.783 3.44761C132.833 3.68881 132.925 3.90162 133.046 4.08606ZM133.649 2.29131C133.663 2.14943 133.691 2.01465 133.734 1.89406C133.776 1.77346 133.833 1.66705 133.911 1.58192C133.989 1.4968 134.081 1.45424 134.202 1.45424C134.322 1.45424 134.415 1.4968 134.493 1.58192C134.571 1.66705 134.62 1.76637 134.663 1.89406C134.706 2.01465 134.727 2.14943 134.741 2.29131C134.755 2.43319 134.762 2.56088 134.762 2.68148C134.762 2.80207 134.755 2.93686 134.741 3.07873C134.727 3.22061 134.698 3.35539 134.663 3.48308C134.62 3.60368 134.564 3.71009 134.493 3.79521C134.422 3.88034 134.322 3.9229 134.202 3.9229C134.081 3.9229 133.989 3.88034 133.911 3.79521C133.833 3.71009 133.776 3.61077 133.734 3.48308C133.691 3.36249 133.663 3.2277 133.649 3.07873C133.634 2.93686 133.627 2.80207 133.627 2.68148C133.627 2.56088 133.634 2.43319 133.649 2.29131Z" fill="#990000"></path> <path d="M141.019 1.80182V4.58972H141.92V0.794495H141.09L139.834 1.7096L140.303 2.34805L141.019 1.80182Z" fill="#990000"></path> <path d="M147.851 1.6245C147.943 1.51809 148.071 1.46844 148.22 1.46844C148.361 1.46844 148.482 1.511 148.567 1.59613C148.652 1.68125 148.695 1.78766 148.695 1.92244C148.695 2.03595 148.666 2.14235 148.61 2.23458C148.553 2.3268 148.475 2.41902 148.383 2.50414L146.893 3.83779V4.58265H149.66V3.80232H148.099L148.986 3.022C149.071 2.94396 149.156 2.86593 149.234 2.7808C149.312 2.70277 149.39 2.61055 149.447 2.51833C149.511 2.42611 149.56 2.3268 149.596 2.21329C149.631 2.10689 149.653 1.9792 149.653 1.84441C149.653 1.64578 149.617 1.47553 149.539 1.33365C149.461 1.18468 149.355 1.06409 149.227 0.971865C149.099 0.872551 148.95 0.801612 148.78 0.759049C148.617 0.716486 148.447 0.68811 148.269 0.68811C148.085 0.68811 147.907 0.716486 147.737 0.773237C147.567 0.829988 147.418 0.90802 147.29 1.01443C147.163 1.12084 147.056 1.24853 146.971 1.3975C146.886 1.54647 146.836 1.71672 146.815 1.91535L147.687 2.03595C147.695 1.86569 147.751 1.73091 147.851 1.6245Z" fill="#990000"></path> <path d="M150.702 25.467C150.688 25.2968 150.447 25.3039 150.34 25.467C149.844 26.1977 148.418 27.3824 146.786 27.4178C144.495 27.4675 143.218 27.4675 143.218 27.4675V22.8423H149.816L149.589 21.4448H143.218V13.5209H148.021C148.021 13.5209 149.085 13.599 149.716 13.9111C149.943 14.0175 150.106 14.1665 150.248 14.28C150.553 14.5212 150.511 13.9324 150.511 13.9324L150.277 10.8253C150.277 10.7898 150.241 10.7543 150.199 10.7543H142.92H138.437H138.323C138.139 10.7543 138.054 11.031 138.182 11.1587C138.387 11.3573 138.565 11.5985 138.728 11.8823C139.026 12.3788 139.175 12.9463 139.175 13.5848V27.1625C139.175 27.7867 139.075 28.3613 138.87 28.8934C138.735 29.2339 138.536 29.5105 138.267 29.7163C138.174 29.7872 138.224 29.9929 138.338 29.9929H138.43H142.913H144.048V29.9787H150.951C150.972 29.9433 150.986 29.9291 151.021 29.9007C150.951 29.3687 151.029 29.9007 150.702 25.467Z" fill="#990000"></path> <path d="M77.7063 29.4467C77.5573 29.2055 77.4296 28.9501 77.3161 28.6805C77.2026 28.4039 77.1104 28.1414 77.0394 27.886C76.9827 27.6306 76.9472 27.4107 76.9259 27.2263L75.7625 13.8189V13.7125C75.7625 13.3294 75.8264 12.8683 75.9541 12.3362C76.0605 11.9106 76.2733 11.485 76.5925 11.0735C76.6847 10.9529 76.5996 10.7685 76.4506 10.7685H71.0735C70.9103 10.7685 70.8323 10.9671 70.9387 11.0877C71.5417 11.7758 71.8751 12.5703 71.9389 13.4925L72.8328 23.5942L65.9659 13.9891L65.9943 13.6841C66.051 13.301 66.1149 12.9676 66.1858 12.698C66.2568 12.4214 66.349 12.1731 66.4625 11.9532C66.576 11.7333 66.6966 11.5346 66.8243 11.3502C66.8952 11.2651 66.9732 11.1728 67.0584 11.0806C67.1648 10.9671 67.0867 10.7756 66.9236 10.7756H61.5535C61.3974 10.7756 61.3123 10.9671 61.4116 11.0806C61.7309 11.4637 61.9366 11.8397 62.0217 12.2015C62.1352 12.6413 62.1849 13.0456 62.1849 13.4074C62.1849 13.4784 62.1778 13.5564 62.1565 13.6273V13.8189L60.8796 27.2263C60.8087 27.886 60.6384 28.4535 60.383 28.9288C60.1915 29.2622 60.0212 29.5389 59.8652 29.7659C59.7942 29.8652 59.8652 30 59.9858 30H65.4622C65.597 30 65.6609 29.8226 65.5757 29.7233C65.3771 29.4963 65.2069 29.2126 65.0508 28.8721C64.8309 28.3755 64.7174 27.8222 64.7174 27.1979C64.7174 26.978 64.7245 26.8432 64.7458 26.7865L65.746 16.323L73.1023 26.6162L73.1591 27.2759V27.4675C73.1591 27.9073 73.0598 28.3755 72.8541 28.8721C72.7122 29.2126 72.549 29.4963 72.3575 29.7233C72.2724 29.8226 72.3433 30 72.471 30H77.7843C77.9262 30 77.9971 29.8014 77.9049 29.702C77.834 29.624 77.7701 29.5389 77.7063 29.4467Z" fill="#FF5500"></path> <path d="M58.0917 10.7685H52.8423C52.7075 10.7685 52.6365 10.9033 52.672 11.0239C52.6791 11.0452 52.6862 11.0735 52.7004 11.0877C52.9558 11.3715 53.1331 11.6552 53.2395 11.9461C53.3885 12.3504 53.4736 12.8257 53.4878 13.3719V13.5351V26.6375C53.4878 27.1341 53.4665 27.5455 53.431 27.8718C53.3956 28.184 53.3175 28.4606 53.2111 28.6947C53.1189 28.9359 52.9912 29.1558 52.821 29.3544C52.7146 29.475 52.5869 29.6027 52.445 29.7375C52.3528 29.8297 52.4166 29.9858 52.5443 29.9858H58.0704C58.191 29.9858 58.2407 29.7801 58.1414 29.7091C57.8718 29.5034 57.6732 29.2268 57.5384 28.8863C57.3327 28.3542 57.2334 27.7796 57.2334 27.1553V13.5989C57.2334 12.9605 57.3823 12.393 57.6803 11.8964C57.8434 11.6127 58.0279 11.3715 58.2265 11.1728C58.2691 11.1303 58.2833 11.0806 58.2833 11.0239C58.2974 10.8962 58.2194 10.7685 58.0917 10.7685Z" fill="#FF5500"></path> <path d="M110.005 10.7543H104.628C104.465 10.7543 104.372 10.9529 104.472 11.0806C104.748 11.4282 104.982 11.8255 105.181 12.2724C105.443 12.847 105.578 13.6273 105.578 14.6063C105.578 15.2376 105.479 16.0534 105.287 17.0466C105.11 18.0468 104.876 19.0399 104.578 20.0402L103.4 24.1901L98.2574 11.9248C98.1936 11.7687 97.9665 11.7687 97.9027 11.9319L93.3697 24.1404L89.6454 13.6912C89.5036 13.3436 89.4255 13.0669 89.4113 12.8754C89.3972 12.6625 89.383 12.4994 89.383 12.3788C89.383 12.1305 89.4468 11.8609 89.5674 11.563C89.6313 11.4069 89.7235 11.2509 89.8299 11.109C89.9363 10.9742 89.8441 10.7472 89.6738 10.7472H84.5662C84.396 10.7472 84.3038 10.96 84.4173 11.0948C84.7223 11.4495 84.9919 11.8893 85.2401 12.4072C85.5877 13.1095 85.9282 13.9323 86.2617 14.8758L89.7235 24.41C90.0356 25.3393 90.3761 26.3041 90.745 27.2972C91.0855 28.2265 91.3622 29.0636 91.5679 29.8084C91.5963 29.9078 91.6885 29.9787 91.7878 29.9787H92.2418C92.334 29.9787 92.4191 29.9219 92.4546 29.8297L96.9096 17.8978C97.1011 18.3164 97.2926 18.7491 97.4842 19.1818C97.6757 19.6003 97.8601 20.0331 98.0375 20.4658C98.6688 22.0619 99.3002 23.658 99.9245 25.2684C100.549 26.8077 101.145 28.3258 101.705 29.8226C101.74 29.9078 101.826 29.9716 101.918 29.9716H102.585C102.684 29.9716 102.769 29.9077 102.805 29.8155L105.621 20.6502C105.812 20.0544 105.99 19.5152 106.146 19.0187C106.302 18.5292 106.451 18.061 106.593 17.6283C106.749 17.1742 106.905 16.7344 107.068 16.3159C107.224 15.8761 107.401 15.4292 107.593 14.9751C107.806 14.4502 108.004 13.9962 108.196 13.606C108.387 13.2017 108.586 12.847 108.799 12.5278C109.026 12.2156 109.274 11.9177 109.537 11.6339C109.714 11.4566 109.913 11.265 110.125 11.0735C110.26 10.9742 110.182 10.7543 110.005 10.7543Z" fill="#990000"></path> <path d="M116.652 25.8288V14.9043C116.652 12.9676 117.241 11.6553 117.851 11.0168C117.908 10.9601 117.893 10.8678 117.851 10.8111C117.83 10.7756 117.794 10.7543 117.751 10.7543H111.708C111.587 10.7543 111.523 10.9317 111.608 11.0168C111.608 11.0168 111.608 11.0168 111.608 11.0239C112.225 11.6553 112.793 12.9463 112.793 14.9043V25.8288C112.793 27.808 112.176 29.1346 111.551 29.7517C111.473 29.8298 111.53 29.9716 111.637 29.9716H117.801C117.908 29.9716 117.957 29.8227 117.886 29.7446C117.241 29.1417 116.652 27.8293 116.652 25.8288Z" fill="#990000"></path> <path d="M50.4235 29.4467C50.2746 29.2055 50.1469 28.9501 50.0334 28.6805C49.9199 28.4039 49.8277 28.1414 49.7567 27.886C49.7 27.6306 49.6645 27.4107 49.6432 27.2263L48.4798 13.8189V13.7125C48.4798 13.3294 48.5437 12.8683 48.6714 12.3362C48.7778 11.9106 48.9906 11.485 49.3098 11.0735C49.402 10.9529 49.3169 10.7685 49.1679 10.7685H43.7908C43.6276 10.7685 43.5496 10.9671 43.656 11.0877C44.259 11.7758 44.5924 12.5703 44.6562 13.4925L45.5501 23.5942L38.6832 13.9891L38.7116 13.6841C38.7683 13.301 38.8322 12.9676 38.9031 12.698C38.974 12.4214 39.0663 12.1731 39.1798 11.9532C39.2933 11.7333 39.4139 11.5346 39.5415 11.3502C39.6125 11.2651 39.6905 11.1728 39.7756 11.0806C39.8821 10.9671 39.804 10.7756 39.6409 10.7756H34.2708C34.1147 10.7756 34.0296 10.9671 34.1289 11.0806C34.4481 11.4637 34.6539 11.8397 34.739 12.2015C34.8525 12.6413 34.9022 13.0456 34.9022 13.4074C34.9022 13.4784 34.8951 13.5564 34.8738 13.6273V13.8189L33.5969 27.2263C33.5259 27.886 33.3557 28.4535 33.1003 28.9288C32.9088 29.2622 32.7385 29.5389 32.5825 29.7659C32.5115 29.8652 32.5825 30 32.703 30H38.1795C38.3143 30 38.3781 29.8226 38.293 29.7233C38.0944 29.4963 37.9241 29.2126 37.7681 28.8721C37.5482 28.3755 37.4347 27.8222 37.4347 27.1979C37.4347 26.978 37.4418 26.8432 37.463 26.7865L38.4633 16.323L45.8196 26.6162L45.8764 27.2759V27.4675C45.8764 27.9073 45.7771 28.3755 45.5713 28.8721C45.4295 29.2126 45.2663 29.4963 45.0748 29.7233C44.9896 29.8226 45.0606 30 45.1883 30H50.5016C50.6435 30 50.7144 29.8014 50.6222 29.702C50.5512 29.624 50.4874 29.5389 50.4235 29.4467Z" fill="#FF5500"></path> <path d="M136.819 29.4467C136.67 29.2055 136.543 28.9501 136.429 28.6734C136.316 28.3968 136.224 28.1343 136.153 27.8789C136.096 27.6236 136.06 27.4036 136.039 27.2192L134.876 13.8118V13.6983C134.876 13.3152 134.94 12.8541 135.067 12.3221C135.174 11.8964 135.386 11.4708 135.706 11.0594C135.798 10.9388 135.713 10.7614 135.564 10.7614H130.187C130.023 10.7614 129.945 10.96 130.052 11.0806C130.655 11.7687 130.988 12.5704 131.052 13.4855L131.946 23.5871L125.079 13.982L125.107 13.677C125.164 13.2939 125.228 12.9605 125.299 12.6839C125.37 12.4072 125.462 12.166 125.576 11.9461C125.689 11.7262 125.81 11.5276 125.937 11.3431L126.171 11.0735C126.278 10.96 126.2 10.7685 126.037 10.7685H120.667C120.511 10.7685 120.425 10.9529 120.525 11.0735C120.844 11.4566 121.05 11.8326 121.135 12.1944C121.248 12.6342 121.305 13.0385 121.305 13.4003L121.277 13.6202V13.8118L120 27.2192C119.929 27.8789 119.759 28.4464 119.503 28.9217C119.312 29.2551 119.141 29.5318 118.978 29.7588C118.914 29.8581 118.978 29.9929 119.099 29.9929H124.575C124.71 29.9929 124.774 29.8156 124.689 29.7162C124.49 29.4892 124.32 29.2055 124.164 28.865C123.944 28.3684 123.831 27.8151 123.831 27.1908C123.831 26.9709 123.838 26.8361 123.859 26.7794L124.852 16.323L132.208 26.6162L132.265 27.276V27.4675C132.265 27.9073 132.166 28.3755 131.96 28.865C131.818 29.2055 131.655 29.4892 131.464 29.7162C131.378 29.8156 131.449 29.9929 131.577 29.9929H136.897C137.039 29.9929 137.11 29.7943 137.018 29.695L136.819 29.4467Z" fill="#990000"></path> <path d="M31.3126 12.3292C31.419 11.9035 31.6389 11.485 31.951 11.0736C32.0503 10.9459 31.9652 10.7685 31.8091 10.7685H26.432C26.2617 10.7685 26.1837 10.953 26.2901 11.0807C26.886 11.7617 27.2194 12.5633 27.2903 13.4855L27.9004 20.3169L28.0849 22.3883C28.1274 22.9061 28.1487 23.4382 28.0849 23.9631C27.716 26.7936 26.1908 28.9147 24.3464 28.9147C22.2182 28.9147 20.5228 26.1055 20.5228 22.6366C20.5228 22.5373 20.5228 22.4309 20.537 22.3315L20.6789 20.8986C20.6789 20.8418 20.693 20.8134 20.693 20.778L21.1471 15.9754L21.3741 13.677C21.4166 13.2868 21.4805 12.9605 21.5585 12.6768C21.6365 12.4072 21.7217 12.1589 21.8423 11.939C21.9487 11.712 22.0693 11.5134 22.1969 11.3289C22.275 11.2296 22.3388 11.1587 22.4381 11.0594C22.5375 10.9388 22.4594 10.7543 22.2963 10.7543H16.9191C16.7701 10.7543 16.6921 10.9388 16.7772 11.0594C17.1035 11.4495 17.2951 11.8184 17.3944 12.1873C17.5008 12.62 17.5646 13.0315 17.5646 13.3933C17.5646 13.4713 17.5434 13.5422 17.5292 13.6132V13.8118L16.7701 21.7357L16.7347 22.1045C16.7205 22.289 16.7134 22.4592 16.7134 22.6366C16.7134 25.3464 18.2173 27.7087 20.4731 28.9643C21.5798 29.6028 22.8921 29.9716 24.2755 29.9716C25.7084 29.9716 27.0421 29.5815 28.1771 28.9076C30.1847 27.7371 31.568 25.7011 31.795 23.3247C31.8162 23.0977 31.7737 21.3384 31.7737 21.3384L31.121 13.8047V13.6983C31.1281 13.3294 31.1778 12.8612 31.3126 12.3292ZM20.31 13.8827C20.31 13.8969 20.2958 13.8969 20.2887 13.904L19.5296 14.6063C19.3878 14.734 19.182 14.734 19.0615 14.6063L18.423 13.904C18.4088 13.8898 18.4088 13.8898 18.4017 13.8827C18.3166 13.7621 18.3237 13.5919 18.4372 13.4713C18.4514 13.4571 18.4585 13.4571 18.4585 13.45L19.2317 12.7477C19.3736 12.62 19.5793 12.62 19.6999 12.7477L20.3384 13.45C20.3525 13.4642 20.3525 13.4642 20.3596 13.4713C20.4377 13.5848 20.4164 13.7621 20.31 13.8827ZM30.2556 13.8827C30.2556 13.8969 30.2414 13.8969 30.2414 13.904L29.5888 14.6063C29.4824 14.734 29.2766 14.734 29.1348 14.6063L28.3686 13.904C28.3686 13.8898 28.3544 13.8898 28.3473 13.8827C28.2409 13.7621 28.2267 13.5919 28.3119 13.4713C28.3261 13.4571 28.3261 13.4571 28.3331 13.45L28.9716 12.7477C29.0922 12.62 29.2979 12.62 29.4256 12.7477L30.1917 13.45C30.2059 13.4642 30.2059 13.4642 30.213 13.4713C30.3336 13.5848 30.3549 13.7621 30.2556 13.8827Z" fill="#FF5500"></path> <path d="M10.91 0.829983C9.85299 0.297943 8.63994 0 7.37723 0L4.79506 0.0993143H0.432327C0.269168 0.0993143 0.191136 0.297943 0.297544 0.418539C0.552923 0.702294 0.73027 0.986049 0.836678 1.2769C0.98565 1.68125 1.07078 2.15654 1.08496 2.70277V2.86593V26.6375C1.08496 27.1341 1.06368 27.5455 1.02821 27.8718C0.992744 28.184 0.914711 28.4606 0.808303 28.6947C0.716082 28.9359 0.588393 29.1558 0.41814 29.3545C0.311731 29.4751 0.184042 29.6027 0.0421642 29.7375C-0.0500562 29.8297 0.0137887 29.9858 0.141478 29.9858H5.66761C5.7882 29.9858 5.83786 29.7801 5.73855 29.7092C5.46898 29.5034 5.27035 29.2268 5.13557 28.8863C4.92984 28.3542 4.83053 27.7796 4.83053 27.1554V20.6645H7.30629H7.31339C7.33467 20.6645 7.35595 20.6645 7.37723 20.6645C8.64704 20.6645 9.85299 20.3665 10.91 19.8345C13.2155 18.7065 14.8258 16.5004 15.0386 13.904L15.0812 13.3294L15.0386 6.76046C14.8258 4.1641 13.2155 1.95791 10.91 0.829983ZM11.3214 13.6628C11.2292 16.9827 9.48411 19.6146 7.36304 19.6146C7.34176 19.6146 7.32757 19.6075 7.30629 19.6075H4.83053V2.92977C4.83053 2.29132 4.9795 1.72381 5.27744 1.22724C5.31291 1.17049 5.34838 1.12083 5.38385 1.07118H7.30629V1.07827C7.32757 1.07827 7.34176 1.07118 7.36304 1.07118C9.48411 1.07118 11.2292 3.703 11.3214 7.02294V13.6628Z" fill="#FF5500"></path> <path d="M113.062 8.39207L114.289 9.61931C114.509 9.83922 114.864 9.83922 115.084 9.61931L116.311 8.39207C116.325 8.37788 116.332 8.3637 116.347 8.34951C116.517 8.14379 116.517 7.84584 116.347 7.64012C116.332 7.62593 116.325 7.61174 116.311 7.59756L115.084 6.37032C114.864 6.15041 114.509 6.15041 114.289 6.37032L113.062 7.59756C113.048 7.61174 113.041 7.62593 113.027 7.64012C112.856 7.84584 112.856 8.14379 113.027 8.34951C113.041 8.3637 113.048 8.37788 113.062 8.39207Z" fill="#990000"></path> <path d="M53.6936 7.64012C53.5234 7.84584 53.5234 8.14379 53.6936 8.34951C53.7078 8.3637 53.7149 8.37788 53.7291 8.39207L54.9563 9.61931C55.1762 9.83922 55.5309 9.83922 55.7508 9.61931L56.9781 8.39207C56.9923 8.37788 56.9994 8.3637 57.0135 8.34951C57.1838 8.14379 57.1838 7.84584 57.0135 7.64012C56.9994 7.62593 56.9923 7.61174 56.9781 7.59756L55.7508 6.37032C55.5309 6.15041 55.1762 6.15041 54.9563 6.37032L53.7291 7.59756C53.7149 7.61174 53.7078 7.62593 53.6936 7.64012Z" fill="#FF5500"></path> </g> <defs> <clipPath id="clip0"> <rect fill="white" height="30" width="151.029"></rect> </clipPath> </defs> </svg> 